<svg width="28" height="28" viewBox="0 0 28 28" fill="none" xmlns="http://www.w3.org/2000/svg">
<path d="M19.833 15.4585C19.833 12.4692 18.7323 10.8375 16.9163 10.1065C16.0825 9.77087 15.0978 9.62516 13.9997 9.62516C12.9015 9.62516 11.9169 9.77087 11.083 10.1065C9.26702 10.8375 8.16634 12.4692 8.16634 15.4585V16.9168C8.16634 17.7218 8.81967 18.3752 9.62467 18.3752H11.083V24.2085C11.083 25.0135 11.7363 25.6668 12.5413 25.6668H15.458C16.263 25.6668 16.9163 25.0135 16.9163 24.2085V18.3752H18.3747C19.1797 18.3752 19.833 17.7218 19.833 16.9168V15.4585Z" fill="white"/>
<path d="M8.16634 8.16683C9.05315 8.16683 9.84752 7.77105 10.3825 7.1465C10.0848 6.57985 9.91634 5.93468 9.91634 5.25016C9.91634 4.56565 10.0848 3.92048 10.3825 3.35383C9.84752 2.72927 9.05315 2.3335 8.16634 2.3335C6.55551 2.3335 5.24967 3.63933 5.24967 5.25016C5.24967 6.86099 6.55551 8.16683 8.16634 8.16683Z" fill="white"/>
<path d="M18.083 5.25016C18.083 5.93468 17.9146 6.57985 17.6169 7.1465C18.1518 7.77105 18.9462 8.16683 19.833 8.16683C21.4438 8.16683 22.7497 6.86099 22.7497 5.25016C22.7497 3.63933 21.4438 2.3335 19.833 2.3335C18.9462 2.3335 18.1518 2.72927 17.6169 3.35383C17.9146 3.92048 18.083 4.56565 18.083 5.25016Z" fill="white"/>
<path d="M8.16634 9.62516C8.60239 9.62516 9.02055 9.64814 9.41848 9.69685C9.27338 9.80192 9.13278 9.91485 8.99708 10.0361C7.64434 11.2445 6.99967 13.0755 6.99967 15.4585V16.9168C6.99967 18.3662 8.17534 19.5418 9.62467 19.5418H9.91634V24.2085C9.91634 24.6855 10.0437 25.1328 10.2662 25.5183C10.0726 25.6134 9.85482 25.6668 9.62467 25.6668H6.70801C5.90301 25.6668 5.24967 25.0135 5.24967 24.2085V18.3752H3.79134C2.98634 18.3752 2.33301 17.7218 2.33301 16.9168V15.4585C2.33301 11.0966 4.67655 9.62516 8.16634 9.62516Z" fill="white"/>
<path d="M18.3747 25.6668C18.1445 25.6668 17.9268 25.6134 17.7332 25.5183C17.9557 25.1328 18.083 24.6855 18.083 24.2085V19.5418H18.3747C19.824 19.5418 20.9997 18.3662 20.9997 16.9168V15.4585C20.9997 13.0755 20.355 11.2445 19.0023 10.0361C18.8666 9.91485 18.726 9.80192 18.5809 9.69685C18.9788 9.64814 19.397 9.62516 19.833 9.62516C23.3228 9.62516 25.6663 11.0966 25.6663 15.4585V16.9168C25.6663 17.7218 25.013 18.3752 24.208 18.3752H22.7497V24.2085C22.7497 25.0135 22.0963 25.6668 21.2913 25.6668H18.3747Z" fill="white"/>
<path d="M13.9997 8.16683C15.6105 8.16683 16.9163 6.86099 16.9163 5.25016C16.9163 3.63933 15.6105 2.3335 13.9997 2.3335C12.3888 2.3335 11.083 3.63933 11.083 5.25016C11.083 6.86099 12.3888 8.16683 13.9997 8.16683Z" fill="white"/>
</svg>
