<svg width="28" height="28" viewBox="0 0 28 28" fill="none" xmlns="http://www.w3.org/2000/svg">
<path d="M25.667 11.6667H21.0003C21.0003 9.68333 19.4837 8.16667 17.5003 8.16667H14.0003C13.3003 8.16667 12.8337 7.7 12.8337 7H18.667C19.367 7 19.8337 6.53333 19.8337 5.83333V1.16667C19.8337 0.466667 19.367 0 18.667 0H4.66699C3.96699 0 3.50033 0.466667 3.50033 1.16667V5.83333C3.50033 6.53333 3.96699 7 4.66699 7H10.5003C10.5003 8.98333 12.017 10.5 14.0003 10.5H17.5003C18.2003 10.5 18.667 10.9667 18.667 11.6667H11.667C10.967 11.6667 10.5003 12.1333 10.5003 12.8333V17.5C10.5003 18.2 10.967 18.6667 11.667 18.6667H19.8337V22.1667C19.8337 22.8667 19.367 23.3333 18.667 23.3333H17.5003V22.1667C17.5003 21.4667 17.0337 21 16.3337 21H2.33366C1.63366 21 1.16699 21.4667 1.16699 22.1667V26.8333C1.16699 27.5333 1.63366 28 2.33366 28H16.3337C17.0337 28 17.5003 27.5333 17.5003 26.8333V25.6667H18.667C20.6503 25.6667 22.167 24.15 22.167 22.1667V18.6667H25.667C26.367 18.6667 26.8337 18.2 26.8337 17.5V12.8333C26.8337 12.1333 26.367 11.6667 25.667 11.6667Z" fill="white" fill-opacity="0.8"/>
</svg>
